<?xml version="1.0" standalone="no"?>
<!DOCTYPE svg PUBLIC "-//W3C//DTD SVG 20010904//EN"
 "http://www.w3.org/TR/2001/REC-SVG-20010904/DTD/svg10.dtd">
<svg version="1.0" xmlns="http://www.w3.org/2000/svg"
 width="717.000000pt" height="717.000000pt" viewBox="0 0 717.000000 717.000000"
 preserveAspectRatio="xMidYMid meet">
<metadata>
Created by potrace 1.11, written by Peter Selinger 2001-2013
</metadata>
<g transform="translate(0.000000,717.000000) scale(0.100000,-0.100000)"
fill="#000000" stroke="none">
<path d="M3665 7153 c-495 -64 -887 -358 -1079 -808 -43 -101 -92 -283 -103
-390 -10 -88 -9 -307 1 -360 66 -349 228 -753 530 -1320 92 -173 250 -454 266
-472 5 -7 10 -15 10 -18 0 -3 19 -36 41 -73 23 -37 50 -83 61 -102 11 -19 55
-90 97 -158 42 -67 81 -130 86 -140 22 -39 147 -234 280 -435 l140 -212 64 0
64 0 54 85 c49 78 175 282 198 322 5 10 61 103 122 207 62 105 125 212 139
238 15 26 44 77 64 113 253 440 520 1001 634 1329 98 282 125 460 102 686 -13
128 -66 348 -101 415 -8 16 -15 34 -15 40 0 21 -99 210 -153 293 -220 337
-564 602 -912 702 -66 19 -66 19 -175 42 -71 14 -345 25 -415 16z"/>
<path d="M1389 4946 c-2 -2 -29 -6 -59 -10 -113 -12 -211 -36 -333 -80 -355
-129 -638 -383 -795 -716 -34 -72 -72 -179 -74 -207 0 -5 -4 -19 -9 -32 -5
-13 -12 -39 -15 -59 -3 -19 -8 -44 -10 -56 -3 -11 -7 -78 -8 -147 -5 -162 17
-300 69 -454 20 -60 101 -223 121 -246 8 -8 14 -19 14 -22 0 -18 128 -171 202
-242 178 -171 405 -295 623 -341 56 -12 115 -23 155 -29 25 -3 58 -8 73 -11
114 -19 325 -28 627 -28 319 0 497 7 773 29 34 3 89 7 122 10 165 13 320 28
425 40 19 2 60 7 90 10 30 3 73 8 95 11 22 3 57 7 78 9 20 3 56 7 80 10 109
14 117 16 117 37 0 11 13 44 29 73 27 50 28 55 14 81 -8 16 -55 108 -105 204
-50 96 -98 189 -108 205 -9 17 -39 71 -65 120 -66 123 -218 388 -296 515 -36
58 -72 116 -80 129 -43 73 -222 339 -282 421 -192 259 -370 451 -505 540 -113
76 -316 166 -416 186 -10 2 -33 8 -50 13 -17 6 -49 13 -71 16 -23 3 -52 8 -65
11 -28 6 -355 15 -361 10z"/>
<path d="M4525 2840 c-53 -26 -114 -107 -195 -258 -18 -33 -18 -34 14 -94 25
-47 38 -62 56 -63 38 -3 212 15 253 26 108 29 174 166 135 280 -37 111 -158
161 -263 109z"/>
<path d="M4857 2274 c-1 -1 -54 -5 -117 -8 -63 -4 -122 -9 -130 -11 -8 -2 -37
-6 -65 -10 -48 -5 -81 -10 -152 -21 -24 -4 -38 -16 -63 -54 l-31 -49 42 -78
c154 -282 322 -501 420 -546 160 -75 373 4 474 177 75 128 81 303 14 424 -25
44 -98 122 -115 122 -7 0 -14 4 -16 10 -5 14 -115 39 -191 42 -38 2 -69 3 -70
2z"/>
<path d="M3487 2204 c-1 -1 -85 -5 -187 -8 -102 -4 -207 -9 -235 -11 -27 -2
-81 -6 -120 -10 -271 -21 -284 -22 -480 -50 -60 -9 -145 -23 -188 -31 -42 -8
-87 -17 -100 -19 -12 -3 -69 -18 -127 -35 -58 -17 -112 -32 -121 -34 -40 -10
-156 -69 -221 -113 -437 -293 -615 -855 -405 -1278 213 -431 726 -601 1234
-410 80 30 210 103 273 153 156 124 380 429 573 782 17 30 50 91 75 135 46 83
264 523 350 705 l50 105 -28 32 c-15 17 -36 44 -45 61 l-18 29 -139 -1 c-77 0
-140 -1 -141 -2z"/>
<path d="M3950 1998 c-11 -15 -20 -29 -20 -32 0 -2 -20 -37 -43 -78 -207 -350
-405 -757 -482 -993 -44 -134 -54 -193 -50 -295 4 -102 8 -126 41 -211 74
-196 241 -339 442 -376 47 -9 204 -8 257 1 68 12 196 66 269 114 174 115 310
306 360 507 21 83 29 218 16 266 -5 19 -11 45 -14 59 -15 85 -137 355 -246
545 -73 127 -210 346 -232 371 -10 11 -18 24 -18 28 0 5 -12 25 -27 45 -16 20
-33 45 -39 56 -9 17 -22 19 -102 20 -89 0 -93 -1 -112 -27z"/>
</g>
</svg>
