<svg xmlns="http://www.w3.org/2000/svg" width="619" height="163" fill="none" viewBox="0 0 619 163">
  <path fill="url(#a)" d="M55.177 19.14C30.465 19.234 8.38 35.986 3.022 60.595a52.238 52.238 0 0 0-1.193 10.913v.273c.057 24.43 17.482 46.541 42.898 52.083 29.256 6.377 58.015-11.602 64.237-40.163a52.076 52.076 0 0 0 1.194-10.836v-.501c-.127-24.385-17.54-46.406-42.903-51.94a55.426 55.426 0 0 0-11.7-1.284h-.378Zm-4.419 98.75c-21.62-4.711-35.12-27.01-30.156-49.797 4.965-22.8 26.511-37.449 48.128-32.734 21.608 4.715 35.111 27.013 30.147 49.8-4.337 19.911-21.339 33.615-39.974 33.615a38.16 38.16 0 0 1-8.145-.884" opacity=".6"/>
  <path fill="url(#b)" d="M101.221 2.404c-17.344 0-33.978 6.936-46.242 19.282C42.715 34.03 35.825 50.773 35.824 68.231c.001 17.459 6.891 34.202 19.155 46.547 12.264 12.345 28.898 19.281 46.242 19.282 17.344-.001 33.977-6.937 46.241-19.282 12.264-12.345 19.154-29.088 19.155-46.547-.001-17.458-6.891-34.201-19.155-46.546-12.264-12.345-28.897-19.28-46.241-19.281Zm5.281 11.469c13.74 0 26.916 5 36.631 13.9 9.715 8.898 15.172 20.967 15.172 33.55 0 12.585-5.457 24.654-15.172 33.553-9.715 8.898-22.891 13.898-36.631 13.899a55.939 55.939 0 0 1-19.827-3.611c-6.286-2.384-11.998-5.88-16.809-10.286-4.811-4.406-8.628-9.637-11.231-15.395-2.604-5.757-3.944-11.928-3.944-18.16 0-6.23 1.34-12.401 3.944-18.159 2.603-5.757 6.42-10.988 11.231-15.394 4.811-4.407 10.523-7.902 16.809-10.286a55.963 55.963 0 0 1 19.827-3.612"/>
  <path fill="url(#c)" d="M88.179 105.701c-7.501 8.081-17.878 12.959-28.877 13.077 2.37 1.964 4.846 3.786 7.468 5.399 11.464-2.139 21.877-7.917 29.607-16.332a50.657 50.657 0 0 1-8.198-2.148" opacity=".6"/>
  <path fill="url(#d)" d="M55.453 53.232c-8.613 6.797-15.01 15.884-18.7 26.039a65.865 65.865 0 0 0 12.046 28.313c.053.077.11.151.167.22-3.136-12.392-.301-25.379 7.053-35.835-.11-.436-.224-.885-.321-1.313a44.067 44.067 0 0 1-1.006-9.352c0-2.759.26-5.448.765-8.072v-.041" opacity=".98"/>
  <path fill="url(#e)" d="M57.608 19.193a65.603 65.603 0 0 0-14.93 19.69c6.398-3.316 13.643-4.897 21.038-4.278 3.299-4.454 7.428-8.354 12.152-11.548a56.537 56.537 0 0 0-8.605-2.629 57.288 57.288 0 0 0-9.48-1.235" opacity=".6"/>
  <path fill="url(#f)" d="M91.368 40.705a57.675 57.675 0 0 0-21.612 4.206 56.943 56.943 0 0 0-14.298 8.317v.04a42.744 42.744 0 0 0-.766 8.073c0 3.211.35 6.328 1.006 9.348.097.432.212.884.322 1.316 5.232-7.473 12.795-13.647 22.104-17.404 24.239-9.764 51.243.603 60.337 23.187a41.282 41.282 0 0 1 2.891 18.659c-1.03 13.443-8.422 26.267-20.337 34.532a50.09 50.09 0 0 1-9.962 5.383c-24.246 9.767-51.262-.616-60.344-23.183a40.758 40.758 0 0 1-1.743-5.334c-.057-.074-.114-.147-.167-.224a65.78 65.78 0 0 1-12.046-28.317c-4.972 13.655-5.086 29.254.823 43.956 9.496 23.607 31.83 38.085 55.29 38.318h1.092a57.584 57.584 0 0 0 21.07-4.202c20.085-8.093 33.178-26.23 36.085-46.581a61.12 61.12 0 0 0-1.225-23.562 63.68 63.68 0 0 0-2.66-8.186c-9.586-23.794-32.196-38.322-55.86-38.322" opacity=".98"/>
  <path fill="#000" d="m387.364 67.553-18.928 48.419-18.937-48.419H338.74l22.63 53.904.88 2.05 1.254 3.048c-1.14 3.851-3.017 6.031-3.192 6.218-.143.131-.241.224-.338.404 0 0-.029.041-.029.045-1.641 2.078-3.441 3.41-5.18 3.928-1.173.359-2.395.411-3.714.073-1.535-.399-3.205-1.296-4.96-2.669l-5.453 7.054c4.451 3.509 8.56 4.674 11.891 4.764a15.043 15.043 0 0 0 4.822-.673c3.808-1.157 7.228-3.769 10.136-7.689.171-.171.301-.347.432-.554.309-.416.635-.877.932-1.374.241-.358.473-.721.697-1.157.289-.566.615-1.084.851-1.671.122-.167.212-.35.313-.578.074-.225.228-.518.355-.775l.399-1.096 1.706-3.928 24.947-59.324m-192.448-12.77h22.056c6.796 0 14.188 6.446 14.188 14.804 0 8.464-7.392 14.792-14.188 14.67l-24.108.122v9.063h24.108c13.235 0 24.923-9.666 24.923-23.855 0-14.446-11.924-23.99-24.923-23.99h-32.429v79.585h10.373m78.391-51.308c-11.806 0-19.316 10.025-19.316 22.43 0 12.412 7.51 22.55 19.316 22.55 11.92 0 19.315-10.02 19.315-22.55 0-12.405-7.395-22.43-19.315-22.43m0 52.857c-16.933 0-29.211-13.598-29.211-30.428 0-16.695 12.278-30.415 29.211-30.415 17.047 0 29.207 13.72 29.207 30.415 0 16.83-12.16 30.428-29.207 30.428m38.581-1.549-.118-79.585h9.538l.122 79.585m94.226 1.958c-16.929 0-29.211-13.602-29.211-30.428 0-16.7 12.282-30.42 29.211-30.42 7.16 0 14.188 1.194 22.651 9.902l-6.316 6.198c-5.364-5.961-10.133-8.109-16.335-8.109-11.801 0-19.315 10.02-19.315 22.429 0 12.412 7.514 22.555 19.315 22.555 6.202 0 10.971-2.27 16.335-8.354l6.316 6.321c-8.463 8.598-15.491 9.906-22.651 9.906m55.743-53.266c-11.806 0-19.315 10.025-19.315 22.43 0 12.412 7.509 22.55 19.315 22.55 11.92 0 19.315-10.02 19.315-22.55 0-12.405-7.395-22.43-19.315-22.43m0 52.857c-16.933 0-29.211-13.598-29.211-30.428 0-16.695 12.278-30.415 29.211-30.415 17.047 0 29.207 13.72 29.207 30.415 0 16.83-12.16 30.428-29.207 30.428m107.066-1.549V87.598c0-9.311-3.807-13.724-10.966-13.724-6.08 0-10.727 4.776-13.826 8.59v42.718h-9.546V87.598c0-9.311-3.93-13.724-10.967-13.724-6.198 0-10.73 4.776-13.947 8.59v42.718h-9.546V67.553h9.546v7.16c2.618-3.223 7.391-8.83 16.692-8.83 8.344 0 13.708 3.814 16.098 10.855 3.454-4.89 8.939-10.855 18.358-10.855 11.684 0 17.65 7.864 17.65 21.715v37.584m9.971-55.255v7.213h-1.099v-8.19h3.339c1.385 0 2.607.977 2.607 2.485 0 1.834-1.589 2.404-2.077 2.404l2.199 3.3h-1.385l-2.118-3.26h-1.791v-.977h2.565c.693 0 1.466-.611 1.466-1.467 0-.897-.773-1.508-1.466-1.508h-2.24Zm-4.479 3.097c0 3.342 2.728 6.113 6.108 6.113 3.38 0 6.068-2.771 6.068-6.113 0-3.423-2.688-6.112-6.068-6.112a6.076 6.076 0 0 0-6.108 6.112Zm-1.018 0a7.085 7.085 0 0 1 7.126-7.131 7.085 7.085 0 0 1 7.127 7.131c0 3.912-3.176 7.131-7.127 7.131-3.95 0-7.126-3.219-7.126-7.13Z"/>
  <defs>
    <linearGradient id="a" x1="21.573" x2="90.626" y1="112.741" y2="31.729" gradientUnits="userSpaceOnUse">
      <stop stop-color="#94A9BB"/>
      <stop offset=".123" stop-color="#94A9BB"/>
      <stop offset="1" stop-color="#94A9BB" stop-opacity=".529"/>
    </linearGradient>
    <linearGradient id="b" x1="36.169" x2="166.272" y1="61.39" y2="75.055" gradientUnits="userSpaceOnUse">
      <stop stop-color="#D11C23"/>
      <stop offset=".552" stop-color="#D11C23"/>
      <stop offset="1" stop-color="#A91317"/>
    </linearGradient>
    <linearGradient id="c" x1="68.24" x2="89.238" y1="126.394" y2="101.759" gradientUnits="userSpaceOnUse">
      <stop stop-color="#94A9BB"/>
      <stop offset=".123" stop-color="#94A9BB"/>
      <stop offset="1" stop-color="#94A9BB" stop-opacity=".529"/>
    </linearGradient>
    <linearGradient id="d" x1="55.058" x2="38.931" y1="105.729" y2="58.922" gradientUnits="userSpaceOnUse">
      <stop stop-color="#94A9BB"/>
      <stop offset="1" stop-color="#94A9BB" stop-opacity=".573"/>
    </linearGradient>
    <linearGradient id="e" x1="47.542" x2="69.324" y1="43.029" y2="17.474" gradientUnits="userSpaceOnUse">
      <stop stop-color="#94A9BB"/>
      <stop offset=".123" stop-color="#94A9BB"/>
      <stop offset="1" stop-color="#94A9BB" stop-opacity=".529"/>
    </linearGradient>
    <linearGradient id="f" x1="110.479" x2="70.993" y1="159.004" y2="44.4" gradientUnits="userSpaceOnUse">
      <stop stop-color="#94A9BB"/>
      <stop offset="1" stop-color="#94A9BB" stop-opacity=".573"/>
    </linearGradient>
  </defs>
</svg>
