<svg xmlns="http://www.w3.org/2000/svg" width="82" height="30" fill="none" viewBox="0 0 82 30">
  <path fill="#fff" d="M14.943 19.433c-1.98.27-9.16 1.13-11.66-.03-3.1-1.44-4.23-4.99-2.41-7.75 1.76-2.67 5.48-3.38 8.22-1.75 2.19 1.3 5.23 7.19 6.11 8.96-.13.17-.22.36-.26.58v-.01Zm.1.79c-1.68 0-6.55.12-8.22 1.17-2.12 1.32-2.85 3.96-1.56 5.79 1.25 1.79 3.88 2.03 5.82.63 1.55-1.12 3.67-5.64 4.33-7.12-.16-.13-.28-.29-.37-.47Zm1.54.72a1.27 1.27 0 0 1-.7 0c-.75 1.26-2.55 4.41-2.53 5.74.02 1.68 1.38 2.79 2.98 2.5 1.54-.28 2.73-1.78 2.71-3.35-.02-1.21-1.69-3.77-2.46-4.88v-.01Zm3.92-.85c-.56-.28-2.26-.05-3.04.08-.06.14-.14.27-.24.38.37.68 1.27 2.27 1.87 2.55.75.35 1.65-.05 2.04-.88.38-.82.1-1.77-.62-2.14l-.01.01Zm-1.34-2.13c-.21-.4-.7-.53-1.1-.29-.24.15-.58.74-.8 1.17.11.14.2.3.24.48.45 0 1.1-.03 1.34-.19.38-.25.52-.77.31-1.17h.01Z"/>
  <path fill="url(#a)" d="M16.243 18.354c.08 0 .16 0 .23.02 1.06-1.66 5.42-8.66 5.42-11.5 0-3.23-2.43-6.26-5.65-6.79-3.47-.58-6.49 1.92-6.49 5.63 0 3.28 5.07 10.92 6.25 12.66.08-.01.16-.02.24-.02Z"/>
  <path fill="#fff" d="M25.703 26.073V4.343h3.58c3.32 0 4.8 1.9 4.8 5.67 0 1.87-.39 3.29-1.13 4.22-.35.42-.71.71-1.19.97.45.23.84.52 1.19.94.74.94 1.13 2.35 1.13 4.26 0 3.77-1.48 5.67-4.8 5.67h-3.58Zm1.03-20.73v9.35h2.55c2.68 0 3.77-1.35 3.77-4.67s-1.06-4.67-3.77-4.67h-2.55v-.01Zm0 10.35v9.38h2.55c2.71 0 3.77-1.32 3.77-4.67 0-3.35-1.1-4.71-3.77-4.71h-2.55Zm17.7 10.38h-8.32V4.343h1.03v20.73h7.29v1Zm1.39-15.99c0-3.71 1.55-5.74 4.61-5.74 3.06 0 4.64 2 4.64 5.74v10.22c0 2.42-.61 3.8-1.52 4.67-.9.87-2.06 1.1-3.13 1.1-1.07 0-2.19-.23-3.1-1.1-.9-.87-1.52-2.26-1.52-4.67v-10.22h.02Zm1 10.22c0 3.26 1.19 4.77 3.61 4.77s3.61-1.42 3.61-4.77v-10.22c0-3.32-1.19-4.74-3.61-4.74s-3.61 1.52-3.61 4.74v10.22Zm10.48-10.22c0-3.71 1.55-5.74 4.61-5.74 3.06 0 4.64 2 4.64 5.74v10.22c0 2.42-.61 3.8-1.52 4.67-.9.87-2.06 1.1-3.13 1.1-1.07 0-2.19-.23-3.1-1.1-.9-.87-1.52-2.26-1.52-4.67v-10.22h.02Zm1 10.22c0 3.26 1.19 4.77 3.61 4.77s3.61-1.42 3.61-4.77v-10.22c0-3.32-1.19-4.74-3.61-4.74s-3.61 1.52-3.61 4.74v10.22Zm16.44 5.77-5.06-17.6v17.6h-1V4.343h.87l5.58 19.38 5.55-19.38h.9v21.73h-1.03v-17.6l-5.03 17.6h-.78Z"/>
  <defs>
    <linearGradient id="a" x1="18.793" x2="10.853" y1="1.084" y2="15.553" gradientUnits="userSpaceOnUse">
      <stop stop-color="#F6931D"/>
      <stop offset=".99" stop-color="#C5262F"/>
    </linearGradient>
  </defs>
</svg>
