<svg xmlns="http://www.w3.org/2000/svg" width="700" height="700" fill="none" viewBox="0 0 700 700">
  <g clip-path="url(#a)">
    <path fill="#4267B2" d="M350 100.226c-137.95 0-249.772 111.823-249.772 249.773 0 123.259 89.299 225.583 206.69 245.999v-.859h.013v-176.23h-60.283v-68.923h60.283v-55.014c0-62.599 41.325-99.995 98.395-99.995 27.324 0 56.64 4.489 56.64 4.489v64.408h-32.243c-31.02 0-36.654 19.531-36.654 39.283v46.829h68.897l-12.049 68.923h-56.848v177.089c117.404-20.416 206.704-122.74 206.704-245.999 0-137.95-111.823-249.773-249.773-249.773Z"/>
    <path fill="#fff" d="M393.064 418.911h56.848l12.062-68.923h-68.91v-46.829c0-19.751 5.647-39.282 36.667-39.282h32.243v-64.408s-29.329-4.489-56.666-4.489c-57.044 0-98.369 37.396-98.369 99.995v55.013h-60.296v68.923h60.296v177.09c14.001 2.446 28.366 3.773 43.043 3.773 14.716 0 29.081-1.327 43.082-3.773v-177.09Z"/>
  </g>
  <defs>
    <clipPath id="a">
      <path fill="#fff" d="M0 0h700v700H0z"/>
    </clipPath>
  </defs>
</svg>
