<svg id="logo-bloom-animated-noletters" xmlns="http://www.w3.org/2000/svg" xmlns:xlink="http://www.w3.org/1999/xlink" viewBox="0 0 129 160" shape-rendering="geometricPrecision" text-rendering="geometricPrecision"><defs><linearGradient id="logo-bloom-animated-noletters-s-path1-fill" x1="0" y1="-0.006307" x2="1" y2="-0.006307" spreadMethod="pad" gradientUnits="userSpaceOnUse" gradientTransform="translate(0 0)"><stop id="logo-bloom-animated-noletters-s-path1-fill-0" offset="0%" stop-color="#dfdfdf"/><stop id="logo-bloom-animated-noletters-s-path1-fill-1" offset="99%" stop-color="#676767"/><stop id="logo-bloom-animated-noletters-s-path1-fill-2" offset="100%" stop-color="#676767"/></linearGradient><linearGradient id="logo-bloom-animated-noletters-s-path2-fill" x1="0" y1="-0.006307" x2="1" y2="-0.006307" spreadMethod="pad" gradientUnits="userSpaceOnUse" gradientTransform="translate(0 0)"><stop id="logo-bloom-animated-noletters-s-path2-fill-0" offset="0%" stop-color="#dfdfdf"/><stop id="logo-bloom-animated-noletters-s-path2-fill-1" offset="99%" stop-color="#676767"/><stop id="logo-bloom-animated-noletters-s-path2-fill-2" offset="100%" stop-color="#676767"/></linearGradient><linearGradient id="logo-bloom-animated-noletters-s-path3-fill" x1="0" y1="-0.006307" x2="1" y2="-0.006307" spreadMethod="pad" gradientUnits="userSpaceOnUse" gradientTransform="translate(0 0)"><stop id="logo-bloom-animated-noletters-s-path3-fill-0" offset="0%" stop-color="#dfdfdf"/><stop id="logo-bloom-animated-noletters-s-path3-fill-1" offset="99%" stop-color="#676767"/><stop id="logo-bloom-animated-noletters-s-path3-fill-2" offset="100%" stop-color="#676767"/></linearGradient><linearGradient id="logo-bloom-animated-noletters-s-path4-fill" x1="0" y1="-0.006307" x2="1" y2="-0.006307" spreadMethod="pad" gradientUnits="userSpaceOnUse" gradientTransform="translate(0 0)"><stop id="logo-bloom-animated-noletters-s-path4-fill-0" offset="0%" stop-color="#dfdfdf"/><stop id="logo-bloom-animated-noletters-s-path4-fill-1" offset="99%" stop-color="#676767"/><stop id="logo-bloom-animated-noletters-s-path4-fill-2" offset="100%" stop-color="#676767"/></linearGradient><linearGradient id="logo-bloom-animated-noletters-s-path5-fill" x1="0" y1="-0.006307" x2="1" y2="-0.006307" spreadMethod="pad" gradientUnits="userSpaceOnUse" gradientTransform="translate(0 0)"><stop id="logo-bloom-animated-noletters-s-path5-fill-0" offset="0%" stop-color="#dfdfdf"/><stop id="logo-bloom-animated-noletters-s-path5-fill-1" offset="99%" stop-color="#676767"/><stop id="logo-bloom-animated-noletters-s-path5-fill-2" offset="100%" stop-color="#676767"/></linearGradient><linearGradient id="logo-bloom-animated-noletters-s-path6-fill" x1="0" y1="0.026242" x2="1" y2="0.026242" spreadMethod="pad" gradientUnits="userSpaceOnUse" gradientTransform="translate(0 0)"><stop id="logo-bloom-animated-noletters-s-path6-fill-0" offset="0%" stop-color="#f6931d"/><stop id="logo-bloom-animated-noletters-s-path6-fill-1" offset="99%" stop-color="#c5262f"/><stop id="logo-bloom-animated-noletters-s-path6-fill-2" offset="100%" stop-color="#c5262f"/></linearGradient><linearGradient id="logo-bloom-animated-noletters-s-path7-fill" x1="0" y1="-0.006307" x2="1" y2="-0.006307" spreadMethod="pad" gradientUnits="userSpaceOnUse" gradientTransform="translate(0 0)"><stop id="logo-bloom-animated-noletters-s-path7-fill-0" offset="0%" stop-color="#dfdfdf"/><stop id="logo-bloom-animated-noletters-s-path7-fill-1" offset="99%" stop-color="#676767"/><stop id="logo-bloom-animated-noletters-s-path7-fill-2" offset="100%" stop-color="#676767"/></linearGradient><linearGradient id="logo-bloom-animated-noletters-s-path8-fill" x1="0" y1="-0.006307" x2="1" y2="-0.006307" spreadMethod="pad" gradientUnits="userSpaceOnUse" gradientTransform="translate(0 0)"><stop id="logo-bloom-animated-noletters-s-path8-fill-0" offset="0%" stop-color="#dfdfdf"/><stop id="logo-bloom-animated-noletters-s-path8-fill-1" offset="99%" stop-color="#676767"/><stop id="logo-bloom-animated-noletters-s-path8-fill-2" offset="100%" stop-color="#676767"/></linearGradient><linearGradient id="logo-bloom-animated-noletters-s-path9-fill" x1="0" y1="-0.006307" x2="1" y2="-0.006307" spreadMethod="pad" gradientUnits="userSpaceOnUse" gradientTransform="translate(0 0)"><stop id="logo-bloom-animated-noletters-s-path9-fill-0" offset="0%" stop-color="#dfdfdf"/><stop id="logo-bloom-animated-noletters-s-path9-fill-1" offset="99%" stop-color="#676767"/><stop id="logo-bloom-animated-noletters-s-path9-fill-2" offset="100%" stop-color="#676767"/></linearGradient><linearGradient id="logo-bloom-animated-noletters-s-path10-fill" x1="0" y1="-0.006307" x2="1" y2="-0.006307" spreadMethod="pad" gradientUnits="userSpaceOnUse" gradientTransform="translate(0 0)"><stop id="logo-bloom-animated-noletters-s-path10-fill-0" offset="0%" stop-color="#dfdfdf"/><stop id="logo-bloom-animated-noletters-s-path10-fill-1" offset="99%" stop-color="#676767"/><stop id="logo-bloom-animated-noletters-s-path10-fill-2" offset="100%" stop-color="#676767"/></linearGradient><linearGradient id="logo-bloom-animated-noletters-s-path11-fill" x1="0" y1="-0.006307" x2="1" y2="-0.006307" spreadMethod="pad" gradientUnits="userSpaceOnUse" gradientTransform="translate(0 0)"><stop id="logo-bloom-animated-noletters-s-path11-fill-0" offset="0%" stop-color="#dfdfdf"/><stop id="logo-bloom-animated-noletters-s-path11-fill-1" offset="99%" stop-color="#676767"/><stop id="logo-bloom-animated-noletters-s-path11-fill-2" offset="100%" stop-color="#676767"/></linearGradient><linearGradient id="logo-bloom-animated-noletters-s-path12-fill" x1="0" y1="0.026242" x2="1" y2="0.026242" spreadMethod="pad" gradientUnits="userSpaceOnUse" gradientTransform="translate(0 0)"><stop id="logo-bloom-animated-noletters-s-path12-fill-0" offset="0%" stop-color="#f6931d"/><stop id="logo-bloom-animated-noletters-s-path12-fill-1" offset="99%" stop-color="#c5262f"/><stop id="logo-bloom-animated-noletters-s-path12-fill-2" offset="100%" stop-color="#c5262f"/></linearGradient></defs><g id="logo-bloom-animated-noletters-u-logo-bloom" transform="matrix(.77562 0 0 0.589138 1196.650001 564.809992)" clip-rule="evenodd"><g id="logo-bloom-animated-noletters-u-petal-6" transform="matrix(-16.355345 39.239814 29.805497 21.532361-1434.430747-804.667682)" opacity="0" clip-rule="evenodd"><path id="logo-bloom-animated-noletters-s-path1" d="M0.145,0.362c.014-.008.053-.009.081-.008.004.01.01.019.017.026-.012.023-.032.054-.046.062-.024.013-.054.005-.068-.017-.01-.014-.01-.031-.002-.045.004-.007.01-.014.018-.018Z" clip-rule="evenodd" fill="url(#logo-bloom-animated-noletters-s-path1-fill)" stroke-linejoin="round" stroke-miterlimit="2"/></g><g id="logo-bloom-animated-noletters-u-petal-5" transform="matrix(-8.742028 20.97391 15.931222 11.50918-1430.045321-787.959845)" opacity="0" clip-rule="evenodd"><path id="logo-bloom-animated-noletters-s-path2" d="M0.288,0.401c.009.001.017,0,.026-.002.024.037.079.127.077.165-.003.047-.048.082-.101.078-.052-.003-.092-.043-.091-.09.001-.012.008-.03.018-.049.02-.036.052-.079.071-.102Z" clip-rule="evenodd" fill="url(#logo-bloom-animated-noletters-s-path2-fill)" stroke-linejoin="round" stroke-miterlimit="2"/></g><g id="logo-bloom-animated-noletters-u-petal-4" transform="matrix(-10.248212 24.587555 18.676044 13.492119-1437.443022-786.326529)" opacity="0" clip-rule="evenodd"><path id="logo-bloom-animated-noletters-s-path3" d="M0.73,0.373c.084.048.102.147.043.22-.057.07-.165.089-.244.044-.06-.034-.143-.19-.178-.259.004-.005.008-.01.012-.016.003-.007.005-.013.007-.02.084-.003.293-.007.36.031Z" clip-rule="evenodd" fill="url(#logo-bloom-animated-noletters-s-path3-fill)" stroke-linejoin="round" stroke-miterlimit="2"/></g><g id="logo-bloom-animated-noletters-u-petal-3" transform="matrix(-9.213472 22.105002 16.790358 12.129845-1438.609366-788.567995)" opacity="0" clip-rule="evenodd"><path id="logo-bloom-animated-noletters-s-path4" d="M0.644,-0.103c.125-.07.278-.034.335.082.056.113-.005.252-.129.311-.099.047-.386.029-.479.022-.002-.012-.007-.023-.014-.032.047-.085.188-.327.287-.383Z" clip-rule="evenodd" fill="url(#logo-bloom-animated-noletters-s-path4-fill)" stroke-linejoin="round" stroke-miterlimit="2"/></g><g id="logo-bloom-animated-noletters-u-petal-2" transform="matrix(-5.574215 13.373682 10.158281 7.338639-1442.631062-793.362163)" opacity="0" clip-rule="evenodd"><path id="logo-bloom-animated-noletters-s-path5" d="M0.316,-0.673c.19-.015.338.14.325.336-.01.159-.253.498-.321.59-.012-.004-.025-.005-.037-.003-.065-.093-.278-.41-.283-.556-.002-.066.014-.13.045-.185.054-.1.154-.172.271-.182Z" clip-rule="evenodd" fill="url(#logo-bloom-animated-noletters-s-path5-fill)" stroke-linejoin="round" stroke-miterlimit="2"/></g><g id="logo-bloom-animated-noletters-u-petal-orange" transform="matrix(-6.417231 15.396317 11.694588 8.448513-1430.41622-812.488629)" opacity="0" clip-rule="evenodd"><path id="logo-bloom-animated-noletters-s-path6" d="M0.51,-0.319c.174.096.432.588.49.701-.003.004-.006.008-.008.012-.003.004-.004.009-.006.013-.119.008-.618.036-.769-.047-.171-.094-.261-.312-.196-.498.007-.02.015-.038.025-.055.088-.161.286-.223.464-.126Z" clip-rule="evenodd" fill="url(#logo-bloom-animated-noletters-s-path6-fill)" stroke-linejoin="round" stroke-miterlimit="2"/></g></g><g id="logo-bloom-animated-noletters-u-fade-logo-bloom" transform="matrix(.77562 0 0 0.589138 1196.053747 564.840213)" clip-rule="evenodd"><g id="logo-bloom-animated-noletters-u-petal-62" transform="matrix(-16.355345 39.239814 29.805497 21.532361-1434.430747-804.667682)" opacity="0" clip-rule="evenodd"><path id="logo-bloom-animated-noletters-s-path7" d="M0.145,0.362c.014-.008.053-.009.081-.008.004.01.01.019.017.026-.012.023-.032.054-.046.062-.024.013-.054.005-.068-.017-.01-.014-.01-.031-.002-.045.004-.007.01-.014.018-.018Z" clip-rule="evenodd" fill="url(#logo-bloom-animated-noletters-s-path7-fill)" stroke-linejoin="round" stroke-miterlimit="2"/></g><g id="logo-bloom-animated-noletters-u-petal-52" transform="matrix(-8.742028 20.97391 15.931222 11.50918-1430.045321-787.959845)" opacity="0" clip-rule="evenodd"><path id="logo-bloom-animated-noletters-s-path8" d="M0.288,0.401c.009.001.017,0,.026-.002.024.037.079.127.077.165-.003.047-.048.082-.101.078-.052-.003-.092-.043-.091-.09.001-.012.008-.03.018-.049.02-.036.052-.079.071-.102Z" clip-rule="evenodd" fill="url(#logo-bloom-animated-noletters-s-path8-fill)" stroke-linejoin="round" stroke-miterlimit="2"/></g><g id="logo-bloom-animated-noletters-u-petal-42" transform="matrix(-10.248212 24.587555 18.676044 13.492119-1437.443022-786.326529)" opacity="0" clip-rule="evenodd"><path id="logo-bloom-animated-noletters-s-path9" d="M0.73,0.373c.084.048.102.147.043.22-.057.07-.165.089-.244.044-.06-.034-.143-.19-.178-.259.004-.005.008-.01.012-.016.003-.007.005-.013.007-.02.084-.003.293-.007.36.031Z" clip-rule="evenodd" fill="url(#logo-bloom-animated-noletters-s-path9-fill)" stroke-linejoin="round" stroke-miterlimit="2"/></g><g id="logo-bloom-animated-noletters-u-petal-32" transform="matrix(-9.213472 22.105002 16.790358 12.129845-1438.609366-788.567995)" opacity="0" clip-rule="evenodd"><path id="logo-bloom-animated-noletters-s-path10" d="M0.644,-0.103c.125-.07.278-.034.335.082.056.113-.005.252-.129.311-.099.047-.386.029-.479.022-.002-.012-.007-.023-.014-.032.047-.085.188-.327.287-.383Z" clip-rule="evenodd" fill="url(#logo-bloom-animated-noletters-s-path10-fill)" stroke-linejoin="round" stroke-miterlimit="2"/></g><g id="logo-bloom-animated-noletters-u-petal-22" transform="matrix(-5.574215 13.373682 10.158281 7.338639-1442.631062-793.362163)" opacity="0" clip-rule="evenodd"><path id="logo-bloom-animated-noletters-s-path11" d="M0.316,-0.673c.19-.015.338.14.325.336-.01.159-.253.498-.321.59-.012-.004-.025-.005-.037-.003-.065-.093-.278-.41-.283-.556-.002-.066.014-.13.045-.185.054-.1.154-.172.271-.182Z" clip-rule="evenodd" fill="url(#logo-bloom-animated-noletters-s-path11-fill)" stroke-linejoin="round" stroke-miterlimit="2"/></g><g id="logo-bloom-animated-noletters-u-petal-orange2" transform="matrix(-6.417231 15.396317 11.694588 8.448513-1430.41622-812.488629)" opacity="0" clip-rule="evenodd"><path id="logo-bloom-animated-noletters-s-path12" d="M0.51,-0.319c.174.096.432.588.49.701-.003.004-.006.008-.008.012-.003.004-.004.009-.006.013-.119.008-.618.036-.769-.047-.171-.094-.261-.312-.196-.498.007-.02.015-.038.025-.055.088-.161.286-.223.464-.126Z" clip-rule="evenodd" fill="url(#logo-bloom-animated-noletters-s-path12-fill)" stroke-linejoin="round" stroke-miterlimit="2"/></g></g>
<script><![CDATA[
(function(s,i,u,o,c,w,d,t,n,x,e,p,a,b){(a=document.getElementById(i.root)).svgatorPlayer={ready:(function(a){b=[];return function(c){return c?(b.push(c),a.svgatorPlayer):b}})(a)};w[o]=w[o]||{};w[o][s]=w[o][s]||[];w[o][s].push(i);e=d.createElementNS(n,t);e.async=true;e.setAttributeNS(x,'href',[u,s,'.','j','s','?','v','=',c].join(''));e.setAttributeNS(null,'src',[u,s,'.','j','s','?','v','=',c].join(''));p=d.getElementsByTagName(t)[0];p.parentNode.insertBefore(e,p);})('91c80d77',{"root":"logo-bloom-animated-noletters","version":"2022-05-04","animations":[{"elements":{"logo-bloom-animated-noletters-u-petal-6":{"transform":{"data":{"o":{"x":-1427.36331,"y":-787.516817,"type":"corner"},"r":-67.373389,"k":{"x":-13.218835,"y":0},"t":{"x":-0.235923,"y":-0.366578}},"keys":{"s":[{"t":100,"v":{"x":-42.511884,"y":35.795434}},{"t":190,"v":{"x":-186.622699,"y":157.138195}},{"t":280,"v":{"x":-116.675309,"y":98.241787}}]}},"opacity":[{"t":0,"v":0},{"t":100,"v":1}]},"logo-bloom-animated-noletters-u-petal-5":{"transform":{"data":{"o":{"x":-1426.002776,"y":-776.682612,"type":"corner"},"r":-67.373389,"k":{"x":-13.218835,"y":0},"t":{"x":-0.306228,"y":-0.421788}},"keys":{"s":[{"t":190,"v":{"x":-22.722851,"y":19.13288}},{"t":290,"v":{"x":-151.532084,"y":127.591529}},{"t":370,"v":{"x":-116.675309,"y":98.241787}}]}},"opacity":[{"t":140,"v":0},{"t":190,"v":1}]},"logo-bloom-animated-noletters-u-petal-4":{"transform":{"data":{"o":{"x":-1434.68659,"y":-772.048228,"type":"corner"},"r":-67.373389,"k":{"x":-13.218835,"y":0},"t":{"x":-0.384074,"y":-0.358347}},"keys":{"s":[{"t":290,"v":{"x":-26.637825,"y":22.429322}},{"t":370,"v":{"x":-147.941598,"y":124.56832}},{"t":450,"v":{"x":-116.675309,"y":98.241787}}]}},"opacity":[{"t":240,"v":0},{"t":290,"v":1}]},"logo-bloom-animated-noletters-u-petal-3":{"transform":{"data":{"o":{"x":-1436.504352,"y":-776.682553,"type":"corner"},"r":-67.373389,"k":{"x":-13.218835,"y":0},"t":{"x":-0.360373,"y":-0.32312}},"keys":{"s":[{"t":370,"v":{"x":-23.948261,"y":20.164675}},{"t":460,"v":{"x":-140.030554,"y":117.907151}},{"t":540,"v":{"x":-116.675309,"y":98.241787}}]}},"opacity":[{"t":330,"v":0},{"t":370,"v":1}]},"logo-bloom-animated-noletters-u-petal-2":{"transform":{"data":{"o":{"x":-1442.045627,"y":-787.516817,"type":"corner"},"r":-67.373389,"k":{"x":-13.218835,"y":0},"t":{"x":-0.311621,"y":-0.228629}},"keys":{"s":[{"t":460,"v":{"x":-14.488866,"y":12.199766}},{"t":570,"v":{"x":-140.171274,"y":118.025631}},{"t":650,"v":{"x":-116.675309,"y":98.241787}}]}},"opacity":[{"t":420,"v":0},{"t":460,"v":1}]},"logo-bloom-animated-noletters-u-petal-orange":{"transform":{"data":{"o":{"x":-1431.945871,"y":-794.073828,"type":"corner"},"r":-67.373479,"k":{"x":-13.218927,"y":0},"t":{"x":-0.974419,"y":-0.403898}},"keys":{"s":[{"t":550,"v":{"x":-16.680151,"y":14.044816}},{"t":670,"v":{"x":-139.536649,"y":117.490912}},{"t":720,"v":{"x":-110.853116,"y":93.339163}}]}},"opacity":[{"t":510,"v":0},{"t":550,"v":1}]},"logo-bloom-animated-noletters-u-fade-logo-bloom":{"transform":{"data":{"o":{"x":83.878444,"y":102.530512,"type":"corner"},"t":{"x":1433.917773,"y":784.722257}},"keys":{"s":[{"t":1500,"v":{"x":0.77562,"y":0.589138},"e":[0,0,0.58,1]},{"t":2500,"v":{"x":0.93,"y":0.74}}]}},"opacity":[{"t":1400,"v":1},{"t":1500,"v":1,"e":[0,0,0.58,1]},{"t":2500,"v":0}]},"logo-bloom-animated-noletters-u-petal-62":{"transform":{"data":{"o":{"x":-1427.36331,"y":-787.516817,"type":"corner"},"r":-67.373389,"k":{"x":-13.218835,"y":0},"t":{"x":-0.235923,"y":-0.366578}},"keys":{"s":[{"t":100,"v":{"x":-42.511884,"y":35.795434}},{"t":190,"v":{"x":-186.622699,"y":157.138195}},{"t":280,"v":{"x":-116.675309,"y":98.241787}}]}},"opacity":[{"t":0,"v":0},{"t":100,"v":1}]},"logo-bloom-animated-noletters-u-petal-52":{"transform":{"data":{"o":{"x":-1426.002776,"y":-776.682612,"type":"corner"},"r":-67.373389,"k":{"x":-13.218835,"y":0},"t":{"x":-0.306228,"y":-0.421788}},"keys":{"s":[{"t":190,"v":{"x":-22.722851,"y":19.13288}},{"t":290,"v":{"x":-151.532084,"y":127.591529}},{"t":370,"v":{"x":-116.675309,"y":98.241787}}]}},"opacity":[{"t":140,"v":0},{"t":190,"v":1}]},"logo-bloom-animated-noletters-u-petal-42":{"transform":{"data":{"o":{"x":-1434.68659,"y":-772.048228,"type":"corner"},"r":-67.373389,"k":{"x":-13.218835,"y":0},"t":{"x":-0.384074,"y":-0.358347}},"keys":{"s":[{"t":290,"v":{"x":-26.637825,"y":22.429322}},{"t":370,"v":{"x":-147.941598,"y":124.56832}},{"t":450,"v":{"x":-116.675309,"y":98.241787}}]}},"opacity":[{"t":240,"v":0},{"t":290,"v":1}]},"logo-bloom-animated-noletters-u-petal-32":{"transform":{"data":{"o":{"x":-1436.504352,"y":-776.682553,"type":"corner"},"r":-67.373389,"k":{"x":-13.218835,"y":0},"t":{"x":-0.360373,"y":-0.32312}},"keys":{"s":[{"t":370,"v":{"x":-23.948261,"y":20.164675}},{"t":460,"v":{"x":-140.030554,"y":117.907151}},{"t":540,"v":{"x":-116.675309,"y":98.241787}}]}},"opacity":[{"t":330,"v":0},{"t":370,"v":1}]},"logo-bloom-animated-noletters-u-petal-22":{"transform":{"data":{"o":{"x":-1442.045627,"y":-787.516817,"type":"corner"},"r":-67.373389,"k":{"x":-13.218835,"y":0},"t":{"x":-0.311621,"y":-0.228629}},"keys":{"s":[{"t":460,"v":{"x":-14.488866,"y":12.199766}},{"t":570,"v":{"x":-140.171274,"y":118.025631}},{"t":650,"v":{"x":-116.675309,"y":98.241787}}]}},"opacity":[{"t":420,"v":0},{"t":460,"v":1}]},"logo-bloom-animated-noletters-u-petal-orange2":{"transform":{"data":{"o":{"x":-1431.945871,"y":-794.073828,"type":"corner"},"r":-67.373479,"k":{"x":-13.218927,"y":0},"t":{"x":-0.974419,"y":-0.403898}},"keys":{"s":[{"t":550,"v":{"x":-16.680151,"y":14.044816}},{"t":670,"v":{"x":-139.536649,"y":117.490912}},{"t":720,"v":{"x":-110.853116,"y":93.339163}}]}},"opacity":[{"t":510,"v":0},{"t":550,"v":1}]}},"s":"MDCA1ZGNlNzViNJ2M4YzViNGM3XYmNjMmMxNzUG4ZDg1ODg4MzOgzN2Y3NWI3YFmNjNWI4SWI2VYzdiY2MyYzEV3NThkODQ3ZkGI3NWJjYzdiOEGM1YjRjN2JjKYzJZYzFjNjcT1OGQ4NDdmNzCViOWJjSGJmYTmZFNzU4ZDg0QWTdmNzViNGJLmYzdiOGM1YzGFiNFZjN2I4TKDc1OGRiOWI0QYmZYYzZiODdLmNzVjNmMzYjBhiOFBiNzc1OLGQ4NDdmNzViCOWMzR2M2NzUW4ZDg0SzgzODBNkMA|"}],"options":"MDSAxMDhmMzZPOCDc4ODc1ODY4SODM2NGUzNjgQwWDgzNzU3OFBUzNlE5MQ|"},'https://cdn.svgator.com/ply/','__SVGATOR_PLAYER__','2022-05-04',window,document,'script','http://www.w3.org/2000/svg','http://www.w3.org/1999/xlink')
]]></script>
</svg>
