<svg xmlns="http://www.w3.org/2000/svg" width="33" height="48" fill="none" viewBox="0 0 33 48">
  <path fill="#7C7C7C" d="M0 47.02V34.29h2.1c1.94 0 2.81 1.11 2.81 3.32 0 1.1-.23 1.93-.66 2.47-.21.25-.42.42-.7.57.26.13.49.3.7.55.43.55.66 1.38.66 2.49 0 2.21-.87 3.32-2.81 3.32H0v.01Zm.6-12.14v5.48h1.49c1.57 0 2.21-.79 2.21-2.74 0-1.95-.62-2.74-2.21-2.74H.6Zm0 6.06v5.49h1.49c1.59 0 2.21-.77 2.21-2.74 0-1.97-.64-2.76-2.21-2.76H.6v.01Zm10.37 6.08H6.1V34.29h.6v12.14h4.27v.59Zm.81-9.37c0-2.17.91-3.36 2.7-3.36s2.72 1.17 2.72 3.36v5.99c0 1.42-.36 2.23-.89 2.74-.53.51-1.21.64-1.83.64-.62 0-1.28-.13-1.81-.64s-.89-1.32-.89-2.74v-5.99Zm.59 5.99c0 1.91.7 2.79 2.11 2.79s2.11-.83 2.11-2.79v-5.99c0-1.94-.7-2.78-2.11-2.78s-2.11.89-2.11 2.78v5.99Zm6.14-5.99c0-2.17.91-3.36 2.7-3.36s2.72 1.17 2.72 3.36v5.99c0 1.42-.36 2.23-.89 2.74-.53.51-1.21.64-1.83.64-.62 0-1.28-.13-1.81-.64s-.89-1.32-.89-2.74v-5.99Zm.59 5.99c0 1.91.7 2.79 2.11 2.79s2.11-.83 2.11-2.79v-5.99c0-1.94-.7-2.78-2.11-2.78s-2.11.89-2.11 2.78v5.99Zm9.63 3.38-2.96-10.31v10.31h-.59V34.29h.51l3.27 11.35 3.25-11.35h.53v12.73h-.6V36.71l-2.95 10.31h-.46Z"/>
  <path fill="url(#a)" d="M16.55 20.8c-2.12.29-9.8 1.21-12.48-.03-3.31-1.54-4.52-5.34-2.57-8.3 1.88-2.86 5.87-3.62 8.8-1.88 2.35 1.39 5.6 7.69 6.54 9.59-.14.18-.24.39-.28.62h-.01Zm.11.85c-1.79 0-7.01.13-8.8 1.25-2.27 1.42-3.05 4.24-1.67 6.2 1.34 1.91 4.15 2.17 6.22.67 1.66-1.2 3.93-6.03 4.64-7.62-.17-.14-.3-.31-.39-.51v.01Zm1.65.77c-.12.03-.24.05-.37.05s-.26-.02-.39-.05c-.8 1.35-2.73 4.72-2.71 6.14.03 1.8 1.48 2.99 3.19 2.68 1.65-.3 2.92-1.9 2.9-3.58-.02-1.3-1.81-4.04-2.63-5.23l.01-.01Zm4.19-.91c-.6-.3-2.42-.05-3.26.09-.06.15-.15.29-.26.41.39.73 1.36 2.43 2 2.73.8.37 1.77-.05 2.18-.94.4-.88.11-1.9-.66-2.29Zm-1.43-2.28a.816.816 0 0 0-1.17-.31c-.26.16-.62.79-.85 1.25.12.15.21.32.26.51.48 0 1.18-.03 1.43-.2a.98.98 0 0 0 .33-1.26v.01Z"/>
  <path fill="url(#b)" d="M17.94 19.64c.09 0 .17 0 .25.02 1.13-1.77 5.8-9.27 5.8-12.3 0-3.46-2.61-6.69-6.04-7.27-3.71-.62-6.94 2.06-6.94 6.03 0 3.51 5.42 11.69 6.68 13.54.08-.02.17-.02.26-.02h-.01Z"/>
  <defs>
    <linearGradient id="a" x1="15.19" x2="6.24" y1="13.269" y2="29.569" gradientUnits="userSpaceOnUse">
      <stop stop-color="#DFDFDF"/>
      <stop offset=".99" stop-color="#676767"/>
    </linearGradient>
    <linearGradient id="b" x1="20.67" x2="12.18" y1="1.159" y2="16.649" gradientUnits="userSpaceOnUse">
      <stop stop-color="#F6931D"/>
      <stop offset=".99" stop-color="#C5262F"/>
    </linearGradient>
  </defs>
</svg>
