<svg xmlns="http://www.w3.org/2000/svg" width="22" height="30" fill="none" viewBox="0 0 22 30">
  <path fill="#fff" d="M14.943 19.433c-1.98.27-9.16 1.13-11.66-.03-3.1-1.44-4.23-4.99-2.41-7.75 1.76-2.67 5.48-3.38 8.22-1.75 2.19 1.3 5.23 7.19 6.11 8.96-.13.17-.22.36-.26.58v-.01Zm.1.79c-1.68 0-6.55.12-8.22 1.17-2.12 1.32-2.85 3.96-1.56 5.79 1.25 1.79 3.88 2.03 5.82.63 1.55-1.12 3.67-5.64 4.33-7.12-.16-.13-.28-.29-.37-.47Zm1.54.72a1.27 1.27 0 0 1-.7 0c-.75 1.26-2.55 4.41-2.53 5.74.02 1.68 1.38 2.79 2.98 2.5 1.54-.28 2.73-1.78 2.71-3.35-.02-1.21-1.69-3.77-2.46-4.88v-.01Zm3.92-.85c-.56-.28-2.26-.05-3.04.08-.06.14-.14.27-.24.38.37.68 1.27 2.27 1.87 2.55.75.35 1.65-.05 2.04-.88.38-.82.1-1.77-.62-2.14l-.01.01Zm-1.34-2.13c-.21-.4-.7-.53-1.1-.29-.24.15-.58.74-.8 1.17.11.14.2.3.24.48.45 0 1.1-.03 1.34-.19.38-.25.52-.77.31-1.17h.01Z"/>
  <path fill="url(#a)" d="M16.243 18.354c.08 0 .16 0 .23.02 1.06-1.66 5.42-8.66 5.42-11.5 0-3.23-2.43-6.26-5.65-6.79-3.47-.58-6.49 1.92-6.49 5.63 0 3.28 5.07 10.92 6.25 12.66.08-.01.16-.02.24-.02Z"/>
  <defs>
    <linearGradient id="a" x1="18.793" x2="10.853" y1="1.084" y2="15.553" gradientUnits="userSpaceOnUse">
      <stop stop-color="#F6931D"/>
      <stop offset=".99" stop-color="#C5262F"/>
    </linearGradient>
  </defs>
</svg>
