<svg xmlns="http://www.w3.org/2000/svg" width="652" height="652" fill="none" viewBox="0 0 652 652">
  <path fill="#222" d="M19.5 411.9c2.1 4.5 4.3 9.6 8.3 20.2 4.1 10.9 10.4 28.1 12.1 33.1 3.1 0 6.1-.4 7.1-1 .7-.4 1.3-1.3 2-2.8 3.9-9.5 7.7-18.5 12.1-29.4 3.7-9.1 5.8-14 7.1-17.5.7-1.9.6-3.2-.4-3.7-1.4-.5-4.4-.8-7.4-1-1.3 3.4-2.7 7.8-5.7 15.7-3.2 8.5-8 21.3-10 26.7-5.1-15.2-9.6-27.7-12.7-36.5-1.7-4.9-2.3-5.8-3.6-5.8-2.2.1-5.6 1-8.9 2Zm65.5 3c0-4.2-.2-4.9-1.7-4.9-1.6 0-6.9.4-8.3.7.2 1.8.3 5.3.3 11.1v16.7c0 19.4 7.9 27 22.4 27 10.7 0 22.9-4.1 22.9-28.5v-11.3c0-7.2.1-12.2.3-15.6-1.7 0-4.7.1-7.3.3-1.1.2-1.8.5-1.8 2.2v24.6c0 16.5-5.8 21.3-13.5 21.3-6.2 0-13.4-3.6-13.4-20.5v-23.1h.1Zm46.7 47.2 1.3 1.7c2.2.4 7.5.9 14.6.9 6.4 0 9.3-.2 10.5-.4 2.2-1.1 3.8-3.3 4.5-6.5l-.2-.2c-3.9.4-9.2.4-12.8.4-3.2 0-6.3-.2-8.2-.7V415c0-4.3-.3-4.9-1.6-4.9-2.9 0-6.6.4-8.4.7.2 1.8.3 5.3.3 11.1v40.2Zm78.5-5.7c-2.2.9-7.2 2.1-12.8 2.1-13.9 0-21.5-9.5-21.5-21.4 0-13.9 9.2-21.2 19.3-21.2 5.1 0 8.6 1.1 10.7 2.1 1.9.7 3.1.6 3.8-.1 1-1 1.6-2.6 1.5-4.4-1.7-1.8-7.5-4.4-15.6-4.4-7.5 0-14.9 1.9-21 7.3-6.6 5.8-9.1 13.7-9.1 21.4 0 16.3 10.7 27.8 30.1 27.8 5.6 0 10.3-1.2 12.2-2.5 1.4-1.5 2.3-3.3 2.8-6.4l-.4-.3Zm21.6-14.1c3.3-8.6 5.5-14 7.9-20 1 2.4 3.3 8.4 7.5 20h-15.4Zm17.4 6.3c2.4 5.9 3.4 8.9 5 13.3.9 2.3 1.5 2.8 2.7 2.8 1.8 0 6.7-.4 8.4-1l.1-.7c-1.6-3.5-3.6-8.5-7.1-17.2-3-7.6-9.6-25-13.6-34.3-.4-1-1-1.5-2-1.5s-5.2.4-8 1l.8 2.1c-3.1 7.3-16.9 39.3-21.5 49.8l.1.7c1.6.6 5.3 1.1 6.9 1.1 1.2 0 1.7-.4 2-1.1 1.3-2.9 3.7-8.9 6.2-15h20Zm23 .4c0 7.2-.1 12.2-.3 15.7 2.3 0 4.9-.1 6.4-.4 1.3-.2 1.8-.5 1.8-2.4v-22.3c0-4.4 0-9-.3-18.4 3.4 6.5 6.3 11.6 10.9 18.7 6.5 9.5 11.9 17.6 16.7 24.3.5.6 1 1 2 1 2.4 0 6.6-1 7.3-1.4v-38c0-7.2.1-12.2.3-15.9-1.9 0-4 .1-6.4.3-1.3.2-1.7.5-1.7 2.5v23.9c0 4.3 0 8.2.4 15.7-2.1-4.9-5.1-9.4-9.1-15.6-6.8-10.4-14.8-21.5-17.6-25.3-.8-1-1.6-1.5-2.4-1.5-1.6 0-7.8.4-9.5.7v.8l1.7 2.2V449h-.2Z"/>
  <path fill="#C3CF21" d="m343.7 168.6 148-96.2v318.4l-148 96.1V349.6l50.3-50.3-50.3-50.3v-80.4Z"/>
  <path fill="#222" d="m210.1 382.7 83.4-83.4-83.6-83.5h50.9l83.4 83.5-83.4 83.4h-50.7Z"/>
</svg>
